<svg width="29" height="30" viewBox="0 0 29 30" fill="none" xmlns="http://www.w3.org/2000/svg">
<g clip-path="url(#clip0_2_580)">
<path d="M22.9583 2.5H21.75V1.25C21.75 0.918479 21.6227 0.600537 21.3961 0.366117C21.1695 0.131696 20.8621 0 20.5417 0C20.2212 0 19.9139 0.131696 19.6872 0.366117C19.4606 0.600537 19.3333 0.918479 19.3333 1.25V2.5H9.66667V1.25C9.66667 0.918479 9.53936 0.600537 9.31275 0.366117C9.08615 0.131696 8.7788 0 8.45833 0C8.13786 0 7.83052 0.131696 7.60391 0.366117C7.37731 0.600537 7.25 0.918479 7.25 1.25V2.5H6.04167C4.43991 2.50198 2.9043 3.1611 1.77168 4.33278C0.639066 5.50445 0.00191866 7.09301 0 8.75L0 23.75C0.00191866 25.407 0.639066 26.9956 1.77168 28.1672C2.9043 29.3389 4.43991 29.998 6.04167 30H22.9583C24.5601 29.998 26.0957 29.3389 27.2283 28.1672C28.3609 26.9956 28.9981 25.407 29 23.75V8.75C28.9981 7.09301 28.3609 5.50445 27.2283 4.33278C26.0957 3.1611 24.5601 2.50198 22.9583 2.5ZM2.41667 8.75C2.41667 7.75544 2.79859 6.80161 3.4784 6.09835C4.15822 5.39509 5.08026 5 6.04167 5H22.9583C23.9197 5 24.8418 5.39509 25.5216 6.09835C26.2014 6.80161 26.5833 7.75544 26.5833 8.75V10H2.41667V8.75ZM22.9583 27.5H6.04167C5.08026 27.5 4.15822 27.1049 3.4784 26.4017C2.79859 25.6984 2.41667 24.7446 2.41667 23.75V12.5H26.5833V23.75C26.5833 24.7446 26.2014 25.6984 25.5216 26.4017C24.8418 27.1049 23.9197 27.5 22.9583 27.5Z" fill="#1A67AE"/>
<path d="M14.5 20.625C15.501 20.625 16.3125 19.7855 16.3125 18.75C16.3125 17.7145 15.501 16.875 14.5 16.875C13.499 16.875 12.6875 17.7145 12.6875 18.75C12.6875 19.7855 13.499 20.625 14.5 20.625Z" fill="#1A67AE"/>
<path d="M8.45825 20.625C9.45927 20.625 10.2708 19.7855 10.2708 18.75C10.2708 17.7145 9.45927 16.875 8.45825 16.875C7.45724 16.875 6.64575 17.7145 6.64575 18.75C6.64575 19.7855 7.45724 20.625 8.45825 20.625Z" fill="#1A67AE"/>
<path d="M20.5417 20.625C21.5428 20.625 22.3542 19.7855 22.3542 18.75C22.3542 17.7145 21.5428 16.875 20.5417 16.875C19.5407 16.875 18.7292 17.7145 18.7292 18.75C18.7292 19.7855 19.5407 20.625 20.5417 20.625Z" fill="#1A67AE"/>
</g>
<defs>
<clipPath id="clip0_2_580">
<rect width="29" height="30" fill="white"/>
</clipPath>
</defs>
</svg>
